<svg id="visual" viewBox="0 0 900 600" width="900" height="600" xmlns="http://www.w3.org/2000/svg" xmlns:xlink="http://www.w3.org/1999/xlink" version="1.1"><path d="M0 387L11.5 387C23 387 46 387 69 387.3C92 387.7 115 388.3 138.2 400.2C161.3 412 184.7 435 207.8 426.3C231 417.7 254 377.3 277 383.2C300 389 323 441 346 456.3C369 471.7 392 450.3 415.2 413.2C438.3 376 461.7 323 484.8 307.2C508 291.3 531 312.7 554 332C577 351.3 600 368.7 623 387.3C646 406 669 426 692.2 438.2C715.3 450.3 738.7 454.7 761.8 440.8C785 427 808 395 831 393.5C854 392 877 421 888.5 435.5L900 450L900 601L888.5 601C877 601 854 601 831 601C808 601 785 601 761.8 601C738.7 601 715.3 601 692.2 601C669 601 646 601 623 601C600 601 577 601 554 601C531 601 508 601 484.8 601C461.7 601 438.3 601 415.2 601C392 601 369 601 346 601C323 601 300 601 277 601C254 601 231 601 207.8 601C184.7 601 161.3 601 138.2 601C115 601 92 601 69 601C46 601 23 601 11.5 601L0 601Z" fill="#ff756b"></path><path d="M0 522L11.5 521.5C23 521 46 520 69 509.7C92 499.3 115 479.7 138.2 460.2C161.3 440.7 184.7 421.3 207.8 416.2C231 411 254 420 277 425.2C300 430.3 323 431.7 346 440.7C369 449.7 392 466.3 415.2 458.7C438.3 451 461.7 419 484.8 422C508 425 531 463 554 457.7C577 452.3 600 403.7 623 397.7C646 391.7 669 428.3 692.2 448.7C715.3 469 738.7 473 761.8 485C785 497 808 517 831 507.3C854 497.7 877 458.3 888.5 438.7L900 419L900 601L888.5 601C877 601 854 601 831 601C808 601 785 601 761.8 601C738.7 601 715.3 601 692.2 601C669 601 646 601 623 601C600 601 577 601 554 601C531 601 508 601 484.8 601C461.7 601 438.3 601 415.2 601C392 601 369 601 346 601C323 601 300 601 277 601C254 601 231 601 207.8 601C184.7 601 161.3 601 138.2 601C115 601 92 601 69 601C46 601 23 601 11.5 601L0 601Z" fill="#ff748f"></path><path d="M0 483L11.5 493.7C23 504.3 46 525.7 69 540.3C92 555 115 563 138.2 567.8C161.3 572.7 184.7 574.3 207.8 564.7C231 555 254 534 277 534C300 534 323 555 346 555.3C369 555.7 392 535.3 415.2 528.5C438.3 521.7 461.7 528.3 484.8 532.8C508 537.3 531 539.7 554 537.8C577 536 600 530 623 518.3C646 506.7 669 489.3 692.2 494.8C715.3 500.3 738.7 528.7 761.8 539.7C785 550.7 808 544.3 831 539.3C854 534.3 877 530.7 888.5 528.8L900 527L900 601L888.5 601C877 601 854 601 831 601C808 601 785 601 761.8 601C738.7 601 715.3 601 692.2 601C669 601 646 601 623 601C600 601 577 601 554 601C531 601 508 601 484.8 601C461.7 601 438.3 601 415.2 601C392 601 369 601 346 601C323 601 300 601 277 601C254 601 231 601 207.8 601C184.7 601 161.3 601 138.2 601C115 601 92 601 69 601C46 601 23 601 11.5 601L0 601Z" fill="#ff7ab2"></path></svg>